<svg width="200" height="200" viewBox="0 0 200 200" fill="none" xmlns="http://www.w3.org/2000/svg">
<rect width="200" height="200" rx="50" fill="#221F18"/>
<path d="M35.9375 144L35.6875 139.5L43.4375 137.625C43.6042 136.708 43.7292 135.333 43.8125 133.5C43.8958 131.583 43.9375 129.042 43.9375 125.875C44.0208 122.708 44.0625 118.833 44.0625 114.25V98.625C44.0625 95.7917 44.0208 92.75 43.9375 89.5C43.9375 86.25 43.8958 83.125 43.8125 80.125C43.8125 77.0417 43.7708 74.375 43.6875 72.125C43.6875 69.875 43.6458 68.375 43.5625 67.625L34.3125 66.375L34.0625 62.375L51.6875 57.25L54.0625 59C53.9792 61.5833 53.8958 64.1667 53.8125 66.75C53.7292 69.3333 53.6458 72.125 53.5625 75.125C53.5625 78.0417 53.5208 81.375 53.4375 85.125C53.4375 88.875 53.4375 93.2083 53.4375 98.125L53.8125 98.25C56.7292 95.0833 59.5625 92.7917 62.3125 91.375C65.1458 89.9583 68.2292 89.25 71.5625 89.25C74.6458 89.25 77.5208 90.0417 80.1875 91.625C82.9375 93.2083 85.1458 95.625 86.8125 98.875C88.5625 102.042 89.4375 106.125 89.4375 111.125V124.625C89.4375 127.625 89.5208 130.333 89.6875 132.75C89.8542 135.083 90.0208 136.708 90.1875 137.625L97.9375 139.5L97.6875 144H72.5625L72.1875 139.5L79.4375 137.625C79.5208 136.958 79.6042 136.125 79.6875 135.125C79.7708 134.125 79.8125 132.875 79.8125 131.375C79.8958 129.792 79.9375 127.833 79.9375 125.5V112C79.9375 108.417 79.3125 105.542 78.0625 103.375C76.8958 101.125 75.3542 99.5 73.4375 98.5C71.5208 97.4167 69.4792 96.875 67.3125 96.875C64.6458 96.875 62.1042 97.5833 59.6875 99C57.2708 100.333 55.2292 102.208 53.5625 104.625V123.375C53.5625 127.208 53.6042 130.375 53.6875 132.875C53.8542 135.375 54.0208 136.958 54.1875 137.625L61.8125 139.5L61.5625 144H35.9375ZM104.438 171.5L104.188 167L111.938 165.125C111.938 164.708 111.938 163.958 111.938 162.875C112.021 161.875 112.104 160.542 112.188 158.875C112.271 157.208 112.312 155.208 112.312 152.875C112.396 150.542 112.438 147.833 112.438 144.75L112.688 113.875C112.688 111.375 112.562 108.833 112.312 106.25C112.146 103.667 111.938 101.583 111.688 100L103.688 98.25V94.125L120.438 89.5L122.562 91.5L121.938 98.375H122.312C124.646 95.375 127.188 93.125 129.938 91.625C132.771 90.0417 135.812 89.25 139.062 89.25C143.646 89.25 147.688 90.4167 151.188 92.75C154.771 95 157.562 98.125 159.562 102.125C161.646 106.042 162.688 110.583 162.688 115.75C162.688 121.25 161.438 126.208 158.938 130.625C156.438 135.042 153.021 138.542 148.688 141.125C144.438 143.625 139.604 144.875 134.188 144.875C132.188 144.875 130.104 144.667 127.938 144.25C125.771 143.833 123.854 143.333 122.188 142.75V152.125C122.188 155.292 122.229 157.958 122.312 160.125C122.479 162.375 122.604 164.042 122.688 165.125L132.938 166.75L132.688 171.5H104.438ZM134.562 138.75C137.896 138.75 140.812 137.958 143.312 136.375C145.896 134.792 147.896 132.458 149.312 129.375C150.812 126.292 151.604 122.542 151.688 118.125C151.771 114.125 151.104 110.583 149.688 107.5C148.354 104.417 146.438 102 143.938 100.25C141.521 98.4167 138.729 97.5 135.562 97.5C132.979 97.5 130.562 98.125 128.312 99.375C126.062 100.542 124.021 102.292 122.188 104.625V134.875C123.854 136.125 125.771 137.083 127.938 137.75C130.104 138.417 132.312 138.75 134.562 138.75Z" fill="#E5E7EB"/>
</svg>
