<svg width="76" height="76" viewBox="0 0 76 76" fill="none" xmlns="http://www.w3.org/2000/svg">
<circle cx="38" cy="38" r="38" fill="#CD5909"/>
<path d="M16.744 27.682L19.1473 35.0784H26.9243L20.6326 39.6497L23.0358 47.0461L16.744 42.4749L10.4522 47.0461L12.8555 39.6497L6.5637 35.0784H14.3408L16.744 27.682Z" fill="#CD5909"/>
<path d="M58.5187 27.682L61.4098 35.4951L69.2229 38.3862L61.4098 41.2773L58.5187 49.0905L55.6276 41.2773L47.8145 38.3862L55.6276 35.4951L58.5187 27.682Z" fill="#CD5909"/>
<path d="M34.6077 38.0492C34.4111 37.8525 34.4112 37.5339 34.6077 37.3374L37.6594 30.0513C37.8559 29.8548 38.1746 29.8547 38.3712 30.0513L41.2714 37.3697C41.468 37.5663 41.4679 37.885 41.2714 38.0815L38.3712 45.1147C38.1747 45.3112 37.856 45.3113 37.6594 45.1147L34.6077 38.0492Z" fill="#CD5909"/>
<path d="M16.7443 27.682L19.1475 35.0784H26.9246L20.6328 39.6497L23.036 47.0461L16.7443 42.4749L10.4525 47.0461L12.8557 39.6497L6.56394 35.0784H14.341L16.7443 27.682Z" fill="white"/>
<path d="M58.5187 27.682L61.4098 35.4951L69.2229 38.3862L61.4098 41.2773L58.5187 49.0905L55.6276 41.2773L47.8145 38.3862L55.6276 35.4951L58.5187 27.682Z" fill="white"/>
<path d="M34.6079 38.0492C34.4113 37.8525 34.4114 37.5339 34.6079 37.3374L37.6596 30.0513C37.8561 29.8548 38.1748 29.8547 38.3714 30.0513L41.2717 37.3697C41.4683 37.5663 41.4682 37.885 41.2717 38.0815L38.3714 45.1147C38.175 45.3112 37.8563 45.3113 37.6597 45.1147L34.6079 38.0492Z" fill="white"/>
</svg>
