<svg xmlns="http://www.w3.org/2000/svg" xmlns:xlink="http://www.w3.org/1999/xlink" viewBox="11 11 423.5 234" width="361.96581196581195" height="200"><path d="M 16.000,138.000 C 19.423,134.132 19.250,134.000 22.500,130.000" stroke-width="4.916" stroke="black" fill="none" stroke-linecap="round"></path><path d="M 22.500,130.000 C 28.126,122.337 28.173,122.382 33.500,114.500" stroke-width="3.000" stroke="black" fill="none" stroke-linecap="round"></path><path d="M 33.500,114.500 C 39.540,104.409 40.126,104.837 46.500,95.000" stroke-width="2.525" stroke="black" fill="none" stroke-linecap="round"></path><path d="M 46.500,95.000 C 53.190,86.224 53.040,86.159 60.500,78.000" stroke-width="2.412" stroke="black" fill="none" stroke-linecap="round"></path><path d="M 60.500,78.000 C 67.747,70.971 67.190,70.474 74.500,63.500" stroke-width="2.466" stroke="black" fill="none" stroke-linecap="round"></path><path d="M 74.500,63.500 C 78.764,57.236 79.497,57.971 84.000,52.000" stroke-width="2.814" stroke="black" fill="none" stroke-linecap="round"></path><path d="M 84.000,52.000 C 89.228,46.662 87.264,48.736 91.500,46.500" stroke-width="3.296" stroke="black" fill="none" stroke-linecap="round"></path><path d="M 91.500,46.500 C 92.146,49.335 92.728,46.412 91.000,51.500" stroke-width="4.266" stroke="black" fill="none" stroke-linecap="round"></path><path d="M 91.000,51.500 C 86.466,57.317 87.646,57.835 82.500,63.500" stroke-width="3.307" stroke="black" fill="none" stroke-linecap="round"></path><path d="M 82.500,63.500 C 78.517,70.920 77.966,70.567 74.000,78.000" stroke-width="2.891" stroke="black" fill="none" stroke-linecap="round"></path><path d="M 74.000,78.000 C 68.852,85.153 69.267,85.420 64.000,92.500" stroke-width="2.800" stroke="black" fill="none" stroke-linecap="round"></path><path d="M 64.000,92.500 C 59.402,98.185 60.102,98.403 56.500,104.500" stroke-width="2.927" stroke="black" fill="none" stroke-linecap="round"></path><path d="M 56.500,104.500 C 53.475,110.928 55.152,107.435 55.500,111.000" stroke-width="3.635" stroke="black" fill="none" stroke-linecap="round"></path><path d="M 55.500,111.000 C 63.648,109.111 60.475,111.178 70.500,105.000" stroke-width="3.733" stroke="black" fill="none" stroke-linecap="round"></path><path d="M 70.500,105.000 C 77.925,98.904 78.648,100.111 85.500,93.000" stroke-width="2.895" stroke="black" fill="none" stroke-linecap="round"></path><path d="M 85.500,93.000 C 94.894,85.606 94.925,85.654 104.500,78.500" stroke-width="2.416" stroke="black" fill="none" stroke-linecap="round"></path><path d="M 104.500,78.500 C 113.311,72.333 113.144,72.106 122.000,66.000" stroke-width="2.463" stroke="black" fill="none" stroke-linecap="round"></path><path d="M 122.000,66.000 C 127.796,61.188 128.061,61.583 134.000,57.000" stroke-width="2.755" stroke="black" fill="none" stroke-linecap="round"></path><path d="M 134.000,57.000 C 139.825,52.189 137.796,54.438 142.000,52.500" stroke-width="3.328" stroke="black" fill="none" stroke-linecap="round"></path><path d="M 142.000,52.500 C 142.405,55.659 143.325,52.689 141.000,58.000" stroke-width="4.243" stroke="black" fill="none" stroke-linecap="round"></path><path d="M 141.000,58.000 C 136.074,63.867 137.155,64.409 131.500,70.000" stroke-width="3.183" stroke="black" fill="none" stroke-linecap="round"></path><path d="M 131.500,70.000 C 125.324,78.804 125.074,78.617 119.000,87.500" stroke-width="2.659" stroke="black" fill="none" stroke-linecap="round"></path><path d="M 119.000,87.500 C 110.130,97.356 111.324,98.054 103.500,108.500" stroke-width="2.271" stroke="black" fill="none" stroke-linecap="round"></path><path d="M 103.500,108.500 C 97.430,117.513 98.380,117.106 95.500,127.000" stroke-width="2.360" stroke="black" fill="none" stroke-linecap="round"></path><path d="M 95.500,127.000 C 94.093,134.386 94.430,132.263 97.500,138.000" stroke-width="2.999" stroke="black" fill="none" stroke-linecap="round"></path><path d="M 97.500,138.000 C 104.284,143.351 102.343,143.136 112.000,144.500" stroke-width="2.873" stroke="black" fill="none" stroke-linecap="round"></path><path d="M 112.000,144.500 C 128.396,146.620 127.784,146.851 144.500,145.000" stroke-width="2.142" stroke="black" fill="none" stroke-linecap="round"></path><path d="M 144.500,145.000 C 170.596,141.003 170.646,142.370 196.500,136.000" stroke-width="1.424" stroke="black" fill="none" stroke-linecap="round"></path><path d="M 196.500,136.000 C 228.683,128.914 228.846,129.753 261.000,122.500" stroke-width="1.180" stroke="black" fill="none" stroke-linecap="round"></path><path d="M 261.000,122.500 C 294.162,115.734 294.183,115.914 327.500,110.000" stroke-width="1.125" stroke="black" fill="none" stroke-linecap="round"></path><path d="M 327.500,110.000 C 356.742,105.446 356.662,104.984 386.000,101.000" stroke-width="1.206" stroke="black" fill="none" stroke-linecap="round"></path><path d="M 386.000,101.000 C 407.743,97.700 407.742,97.696 429.500,94.500" stroke-width="1.355" stroke="black" fill="none" stroke-linecap="round"></path><path d="M 209.500,16.000 C 198.991,25.084 199.750,25.750 190.000,35.500" stroke-width="4.080" stroke="black" fill="none" stroke-linecap="round"></path><path d="M 190.000,35.500 C 178.777,49.160 178.491,48.834 168.500,63.500" stroke-width="2.191" stroke="black" fill="none" stroke-linecap="round"></path><path d="M 168.500,63.500 C 157.428,79.292 157.277,79.160 147.000,95.500" stroke-width="1.840" stroke="black" fill="none" stroke-linecap="round"></path><path d="M 147.000,95.500 C 134.633,115.178 134.428,115.042 122.500,135.000" stroke-width="1.593" stroke="black" fill="none" stroke-linecap="round"></path><path d="M 122.500,135.000 C 109.585,156.552 109.383,156.428 96.500,178.000" stroke-width="1.469" stroke="black" fill="none" stroke-linecap="round"></path><path d="M 96.500,178.000 C 85.310,196.287 85.335,196.302 74.000,214.500" stroke-width="1.556" stroke="black" fill="none" stroke-linecap="round"></path><path d="M 74.000,214.500 C 65.103,226.808 66.060,227.287 58.000,240.000" stroke-width="1.814" stroke="black" fill="none" stroke-linecap="round"></path><path d="M 239.000,41.000 C 232.674,49.697 232.750,49.750 226.500,58.500" stroke-width="3.825" stroke="black" fill="none" stroke-linecap="round"></path><path d="M 226.500,58.500 C 219.154,68.935 219.174,68.947 212.000,79.500" stroke-width="2.492" stroke="black" fill="none" stroke-linecap="round"></path><path d="M 212.000,79.500 C 203.055,93.037 202.904,92.935 194.000,106.500" stroke-width="2.011" stroke="black" fill="none" stroke-linecap="round"></path><path d="M 194.000,106.500 C 183.824,121.134 184.055,121.287 174.000,136.000" stroke-width="1.871" stroke="black" fill="none" stroke-linecap="round"></path><path d="M 174.000,136.000 C 164.882,149.926 164.824,149.884 156.000,164.000" stroke-width="1.892" stroke="black" fill="none" stroke-linecap="round"></path><path d="M 156.000,164.000 C 148.693,175.715 148.632,175.676 141.500,187.500" stroke-width="2.009" stroke="black" fill="none" stroke-linecap="round"></path><path d="M 141.500,187.500 C 136.384,194.733 136.943,194.965 132.500,202.500" stroke-width="2.440" stroke="black" fill="none" stroke-linecap="round"></path><path d="M 233.000,91.000 C 229.206,92.320 229.500,92.750 226.000,94.500" stroke-width="5.256" stroke="black" fill="none" stroke-linecap="round"></path><path d="M 226.000,94.500 C 222.981,96.758 222.956,96.570 220.500,99.500" stroke-width="4.178" stroke="black" fill="none" stroke-linecap="round"></path><path d="M 220.500,99.500 C 217.207,102.030 218.231,102.008 216.500,105.000" stroke-width="4.065" stroke="black" fill="none" stroke-linecap="round"></path><path d="M 216.500,105.000 C 216.207,109.915 215.957,107.280 218.000,110.000" stroke-width="4.588" stroke="black" fill="none" stroke-linecap="round"></path><path d="M 218.000,110.000 C 223.028,108.403 221.457,110.165 227.000,105.500" stroke-width="4.412" stroke="black" fill="none" stroke-linecap="round"></path><path d="M 227.000,105.500 C 229.291,103.186 229.528,103.653 231.000,100.500" stroke-width="4.128" stroke="black" fill="none" stroke-linecap="round"></path><path d="M 231.000,100.500 C 232.613,97.551 232.791,97.686 234.000,94.500" stroke-width="4.061" stroke="black" fill="none" stroke-linecap="round"></path><path d="M 234.000,94.500 C 236.181,88.776 235.113,92.051 236.000,89.500" stroke-width="4.206" stroke="black" fill="none" stroke-linecap="round"></path><path d="M 236.000,89.500 C 234.321,93.950 235.681,90.776 233.000,98.500" stroke-width="4.766" stroke="black" fill="none" stroke-linecap="round"></path><path d="M 233.000,98.500 C 231.100,101.932 232.071,101.700 231.500,105.000" stroke-width="4.179" stroke="black" fill="none" stroke-linecap="round"></path><path d="M 231.500,105.000 C 232.379,109.251 231.850,107.682 234.500,110.000" stroke-width="4.583" stroke="black" fill="none" stroke-linecap="round"></path><path d="M 234.500,110.000 C 237.470,109.417 236.629,110.751 240.000,108.000" stroke-width="4.296" stroke="black" fill="none" stroke-linecap="round"></path><path d="M 240.000,108.000 C 243.608,105.638 243.720,105.917 247.000,103.000" stroke-width="3.887" stroke="black" fill="none" stroke-linecap="round"></path><path d="M 247.000,103.000 C 250.502,100.498 250.358,100.388 253.500,97.500" stroke-width="3.734" stroke="black" fill="none" stroke-linecap="round"></path><path d="M 249.500,103.000 C 250.925,98.363 251.500,98.750 253.500,94.500" stroke-width="5.217" stroke="black" fill="none" stroke-linecap="round"></path><path d="M 253.500,94.500 C 257.650,88.308 255.925,90.863 259.500,88.000" stroke-width="4.666" stroke="black" fill="none" stroke-linecap="round"></path><path d="M 259.500,88.000 C 260.005,90.847 260.650,87.808 259.500,93.500" stroke-width="5.026" stroke="black" fill="none" stroke-linecap="round"></path><path d="M 259.500,93.500 C 256.299,98.223 259.005,96.097 257.500,98.500" stroke-width="4.891" stroke="black" fill="none" stroke-linecap="round"></path><path d="M 257.500,98.500 C 262.007,97.203 259.549,98.973 266.000,95.000" stroke-width="4.782" stroke="black" fill="none" stroke-linecap="round"></path><path d="M 266.000,95.000 C 269.017,92.773 269.257,93.203 272.000,90.500" stroke-width="4.073" stroke="black" fill="none" stroke-linecap="round"></path><path d="M 272.000,90.500 C 274.713,86.524 274.267,88.773 276.500,87.000" stroke-width="4.170" stroke="black" fill="none" stroke-linecap="round"></path><path d="M 276.500,87.000 C 279.091,89.636 278.463,87.524 279.500,92.500" stroke-width="4.811" stroke="black" fill="none" stroke-linecap="round"></path><path d="M 279.500,92.500 C 278.717,94.991 279.841,94.886 278.000,97.500" stroke-width="4.397" stroke="black" fill="none" stroke-linecap="round"></path><path d="M 291.000,86.000 C 290.361,88.539 290.250,88.500 289.500,91.000" stroke-width="5.463" stroke="black" fill="none" stroke-linecap="round"></path><path d="M 289.500,91.000 C 288.389,93.461 288.611,93.539 287.500,96.000" stroke-width="5.008" stroke="black" fill="none" stroke-linecap="round"></path><path d="M 311.000,66.000 C 311.421,69.052 311.000,69.000 311.000,72.000" stroke-width="5.400" stroke="black" fill="none" stroke-linecap="round"></path><path d="M 311.000,72.000 C 310.149,76.043 310.421,76.052 309.000,80.000" stroke-width="4.160" stroke="black" fill="none" stroke-linecap="round"></path><path d="M 309.000,80.000 C 307.866,83.792 307.899,83.793 306.500,87.500" stroke-width="3.930" stroke="black" fill="none" stroke-linecap="round"></path><path d="M 306.500,87.500 C 304.052,93.185 304.366,93.292 302.000,99.000" stroke-width="3.434" stroke="black" fill="none" stroke-linecap="round"></path><path d="M 331.500,67.500 C 330.230,73.567 330.000,73.500 328.500,79.500" stroke-width="5.160" stroke="black" fill="none" stroke-linecap="round"></path><path d="M 328.500,79.500 C 326.423,85.475 326.730,85.567 324.500,91.500" stroke-width="3.559" stroke="black" fill="none" stroke-linecap="round"></path><path d="M 324.500,91.500 C 322.494,97.190 322.673,97.225 321.000,103.000" stroke-width="3.370" stroke="black" fill="none" stroke-linecap="round"></path><path d="M 317.000,91.500 C 322.451,89.350 322.500,89.500 328.000,87.500" stroke-width="5.136" stroke="black" fill="none" stroke-linecap="round"></path><path d="M 328.000,87.500 C 332.193,85.957 332.201,86.100 336.500,85.000" stroke-width="4.037" stroke="black" fill="none" stroke-linecap="round"></path><path d="M 342.000,86.500 C 339.526,90.188 341.250,89.500 340.500,92.500" stroke-width="5.375" stroke="black" fill="none" stroke-linecap="round"></path><path d="M 340.500,92.500 C 343.833,96.510 341.526,94.938 346.000,96.000" stroke-width="5.198" stroke="black" fill="none" stroke-linecap="round"></path><path d="M 346.000,96.000 C 349.403,92.781 348.083,95.510 349.000,90.500" stroke-width="5.155" stroke="black" fill="none" stroke-linecap="round"></path><path d="M 358.500,86.500 C 352.367,91.335 355.500,89.250 352.500,92.000" stroke-width="5.268" stroke="black" fill="none" stroke-linecap="round"></path><path d="M 352.500,92.000 C 355.948,90.831 352.617,92.585 359.000,89.000" stroke-width="5.262" stroke="black" fill="none" stroke-linecap="round"></path><path d="M 359.000,89.000 C 362.220,84.646 362.198,87.081 365.000,84.500" stroke-width="4.768" stroke="black" fill="none" stroke-linecap="round"></path><path d="M 365.000,84.500 C 368.158,86.217 366.970,84.396 368.500,88.500" stroke-width="5.119" stroke="black" fill="none" stroke-linecap="round"></path></svg>